<svg xmlns="http://www.w3.org/2000/svg" xmlns:xlink="http://www.w3.org/1999/xlink" width="171.1" height="72.00000000000001"><path fill="#2196f3" stroke="#673ab7" d="M166.55 19.80C166.26 19.73 165.97 19.37 165.68 19.15C165.90 19.01 165.97 18.79 165.47 18.58C164.82 18.65 163.74 18.36 163.02 18.86C162.80 19.08 162.23 19.08 161.94 18.94C161.15 18.65 160.50 18.79 159.85 19.08L158.99 19.30C158.05 19.58 157.12 19.87 156.18 20.23C155.89 20.30 155.53 20.52 155.53 20.74C155.32 21.67 154.60 21.67 153.95 21.67C153.44 22.25 153.01 22.90 152.44 23.33C151.36 24.26 150.42 25.27 149.92 26.64C149.84 26.93 149.77 27.22 149.56 27.43C148.76 28.37 148.48 29.66 147.47 30.46C147.32 30.53 147.32 30.74 147.25 30.82C146.96 31.39 146.82 32.04 146.46 32.47C145.96 33.12 145.81 33.77 145.67 34.49C145.52 34.99 145.38 35.50 145.16 35.93C144.73 36.86 144.44 37.80 144.44 38.88C144.52 39.38 144.37 39.89 144.37 40.39C144.30 41.18 144.16 41.90 144.16 42.70C144.16 43.78 144.23 44.86 144.01 45.94C143.94 46.37 143.80 46.80 144.23 47.16C144.30 47.95 145.16 48.60 144.80 49.54C144.73 49.61 144.80 49.75 144.88 49.82C145.31 50.62 145.60 51.55 146.32 52.20L146.60 52.49C146.68 53.14 146.89 53.57 147.61 53.57C147.76 53.57 147.97 53.86 148.04 54.07C148.33 54.36 148.40 54.79 148.76 55.01C149.63 55.51 150.35 56.38 151.43 56.52C151.79 56.59 152.15 56.74 152.29 57.02C152.72 57.60 153.44 57.60 154.02 57.96C155.03 58.54 156.11 58.75 157.26 58.90C157.84 59.04 158.48 59.11 159.06 59.33C159.64 59.62 160.43 59.33 160.93 59.90C161.00 59.98 161.22 59.90 161.36 59.90C162.08 59.98 162.73 59.98 163.45 59.76C164.46 58.54 165.18 57.17 165.97 55.87C166.12 55.66 166.33 55.37 166.33 55.15C166.48 54.36 166.98 53.71 167.48 53.14C167.70 52.92 167.84 52.63 168.13 52.42C168.35 52.27 168.71 52.34 169.07 52.27C169.14 51.19 169.36 50.11 168.92 49.10C168.85 48.96 168.78 48.74 168.78 48.53L168.92 45.14C168.92 45.07 168.78 45.00 168.71 44.78C168.28 44.86 167.77 44.93 167.27 44.93C165.68 45.00 164.10 45.07 162.52 44.71C162.08 44.64 161.72 44.35 161.36 44.21C161.00 43.99 160.57 44.42 160.14 44.14C160.00 43.99 159.71 43.92 159.56 43.78C159.28 43.56 159.13 43.27 158.84 43.06C158.20 42.55 157.91 41.47 156.90 41.33C156.68 40.97 156.32 40.68 156.32 40.32C156.47 39.46 155.89 38.74 155.82 37.87C155.96 37.58 156.11 37.22 156.18 36.94C156.32 36.29 156.68 35.86 157.12 35.35L159.56 32.33C159.85 32.26 160.21 32.11 160.64 32.11C161.36 32.11 162.08 31.90 162.66 31.61C163.31 31.32 163.96 31.10 164.60 31.10C164.89 31.10 165.18 31.10 165.47 31.03C165.61 30.10 165.68 29.16 166.26 28.37C166.33 28.30 166.33 28.08 166.33 28.01C165.97 27.14 166.40 26.50 166.69 25.85C166.91 25.42 167.20 24.98 167.48 24.55C167.05 24.12 166.84 23.69 167.12 23.18C167.12 23.04 167.12 22.82 167.05 22.75C166.55 22.39 166.76 21.89 166.69 21.38C166.62 20.88 166.76 20.30 166.55 19.80ZM164.89 20.16C165.76 21.53 165.83 23.18 165.68 24.62C165.11 24.91 164.53 25.20 163.88 25.20C163.52 25.13 163.09 25.27 162.80 25.42C162.08 25.78 161.29 25.56 160.57 25.92C160.50 25.92 160.36 25.92 160.28 25.85C159.56 25.49 159.13 25.92 158.63 26.28C158.20 26.64 157.69 26.93 157.19 27.29C157.12 27.58 157.19 27.94 156.76 28.30C156.18 28.80 155.75 29.45 155.17 29.95C154.81 30.31 154.52 30.74 154.52 31.32C154.52 31.82 154.31 32.26 154.16 32.69C153.95 33.34 153.88 33.98 154.16 34.70C154.24 34.85 154.24 35.06 154.24 35.21C153.80 36.58 154.16 37.80 154.60 39.02C154.74 39.24 154.74 39.53 154.81 39.82C155.17 41.11 155.89 42.26 156.90 43.20C157.33 43.63 158.05 43.85 158.63 44.14C158.99 44.28 159.42 44.42 159.49 45.00C159.56 45.14 159.92 45.43 160.14 45.43C161.36 45.79 162.52 46.08 163.74 46.30C164.75 46.44 165.76 46.51 166.76 46.51C166.98 46.51 167.27 46.58 167.56 46.66C167.63 46.87 167.70 47.09 167.70 47.23C167.48 48.24 167.48 49.25 167.77 50.18C167.84 50.40 167.84 50.62 167.84 50.76C167.84 51.19 167.63 51.41 167.27 51.55C166.84 51.62 166.40 51.77 165.97 51.77C165.54 51.84 165.04 51.91 164.60 51.77C164.03 51.62 163.67 52.20 163.09 51.98C162.66 51.77 162.16 51.91 161.65 51.84C161.15 51.77 160.50 51.77 160.07 51.48C159.13 50.83 158.12 50.76 157.12 50.62C156.76 50.62 156.47 50.54 156.25 50.18C156.18 49.97 156.04 49.90 155.82 49.97C155.46 50.04 155.17 49.75 154.96 49.54C154.16 48.74 153.23 48.24 152.22 47.74C151.57 47.30 151.00 46.94 150.92 46.08L150.92 45.94C150.20 45.50 150.13 44.78 149.84 44.06C149.77 43.92 149.63 43.70 149.48 43.63C148.62 42.98 148.48 42.05 148.40 41.11C148.33 40.61 148.48 40.10 148.40 39.67C148.19 38.45 148.26 37.30 148.69 36.14C148.84 35.86 148.84 35.35 148.69 35.06C148.40 34.27 148.62 33.55 148.84 32.83C148.98 32.26 149.20 31.75 149.41 31.18C149.56 30.67 149.70 30.17 149.92 29.66C149.99 29.38 150.06 29.02 150.35 28.80C150.92 28.37 151.14 27.79 151.36 27.14C151.64 26.57 151.86 26.06 152.36 25.63C152.80 25.20 153.01 24.55 153.37 24.05C153.52 23.83 153.66 23.69 153.88 23.54C154.96 23.04 155.82 22.18 156.83 21.60C157.33 21.31 157.91 21.17 158.41 21.02C159.56 20.74 160.57 20.23 161.72 20.09C163.24 19.94 163.24 19.87 164.46 20.16Z"/></svg>