<svg xmlns="http://www.w3.org/2000/svg" xmlns:xlink="http://www.w3.org/1999/xlink" width="35.136" height="72.00000000000001"><path fill="#2196f3" stroke="#673ab7" d="M221.39 34.85C221.25 34.92 221.03 35.06 220.82 35.06C220.38 35.14 219.95 35.14 219.52 35.06C217.79 34.78 216.06 35.21 214.34 35.14C213.98 35.14 213.62 35.21 213.18 35.21C212.75 35.28 212.32 35.42 211.96 35.35C210.52 35.06 209.22 35.28 207.86 35.78C207.57 35.93 207.21 35.93 206.92 35.93C205.98 35.93 205.12 35.93 204.18 35.71C203.61 35.57 202.89 35.71 202.17 35.71C202.02 36.07 201.81 36.43 201.81 36.79C201.74 37.73 201.81 38.74 201.74 39.67C201.74 39.89 201.74 40.10 201.74 40.32C201.66 40.97 201.52 41.69 202.31 42.05C202.38 42.12 202.46 42.26 202.46 42.41C202.60 43.78 203.10 45.00 203.82 46.15C204.47 46.44 205.19 46.66 205.91 46.94C206.13 47.09 206.49 47.30 206.49 47.52C206.56 48.17 206.99 48.24 207.42 48.53C207.86 48.74 208.14 48.82 208.65 48.74C209.08 48.67 209.58 48.74 210.02 48.74C210.45 48.74 210.88 48.89 211.31 48.82C211.96 48.82 212.61 48.74 213.26 48.60C213.98 48.38 214.70 47.95 215.34 47.66C215.42 47.59 215.56 47.59 215.63 47.52C215.99 46.58 216.93 46.15 217.36 45.29C217.50 45.14 217.58 44.86 217.72 44.78C218.30 44.50 218.37 43.92 218.37 43.34C218.44 42.62 218.80 42.34 219.45 42.26C220.10 42.26 220.74 42.26 221.32 42.26C221.39 42.34 221.46 42.41 221.54 42.48C221.75 43.06 221.39 43.49 221.25 43.99C221.10 44.50 221.68 44.86 221.46 45.36C221.32 45.72 221.18 46.15 220.96 46.37C220.53 46.87 220.24 47.38 220.10 48.02C220.02 48.53 219.74 48.89 219.09 48.89C218.87 48.89 218.66 49.03 218.58 49.25C218.08 50.33 217.07 50.83 216.35 51.62C216.21 51.77 215.92 51.84 215.70 51.84C215.13 51.77 214.98 52.20 214.77 52.63C214.62 52.63 214.41 52.70 214.26 52.70C213.69 52.92 213.04 52.85 212.68 53.42C211.89 53.50 211.24 54.00 210.45 53.64C210.30 53.57 210.09 53.50 209.87 53.57C208.29 53.93 206.78 53.42 205.12 53.21C204.98 52.85 204.83 52.49 204.69 52.13C203.90 51.84 203.18 51.48 202.82 50.62C201.59 49.75 201.09 48.31 199.86 47.38C199.50 47.16 199.22 46.51 199.14 46.08C199 45.43 198.78 44.93 198.42 44.50C197.99 43.99 197.85 43.42 197.92 42.77C197.92 42.19 197.92 41.62 197.85 41.11C197.78 40.75 197.78 40.32 197.56 40.10C196.98 39.53 196.98 38.74 196.91 38.02C196.84 37.30 196.70 36.58 196.91 35.86C197.06 35.28 196.77 34.63 196.70 34.06C196.70 33.84 196.55 33.62 196.62 33.48C197.13 32.83 196.91 32.04 197.20 31.32C197.49 30.67 197.49 30.02 197.49 29.38C197.49 28.30 197.78 27.29 198.50 26.50C199.07 25.78 199.36 24.98 199.65 24.12C199.72 23.83 199.86 23.47 200.15 23.54C200.94 23.54 201.30 22.97 201.59 22.46C202.24 21.53 203.10 20.88 204.04 20.38C204.62 20.09 205.19 19.66 205.70 19.30C205.84 19.22 205.91 19.01 205.98 19.01C207.28 18.50 208.58 17.71 210.09 17.93C210.23 17.93 210.45 17.93 210.59 17.86C211.02 17.78 211.46 17.78 211.82 18.07C212.32 18.50 212.90 18.36 213.47 18.36C214.12 18.36 214.70 18.36 215.27 18.65C215.42 18.72 215.63 18.79 215.63 18.86C215.78 19.73 216.71 19.73 217.07 20.38C217.36 20.95 218.01 21.31 218.51 21.74C218.66 21.82 218.73 21.96 218.87 22.03C219.59 22.18 219.81 22.75 219.95 23.40C220.10 24.12 220.46 24.84 220.60 25.56C220.89 27.43 221.46 29.30 221.54 31.18C221.54 31.54 221.68 31.82 221.75 32.18C221.75 32.40 221.82 32.62 221.75 32.83C221.68 33.48 221.54 34.06 221.39 34.85ZM217.94 40.54C218.51 40.25 218.51 40.32 218.80 39.89C219.16 39.96 219.52 39.82 219.66 39.38C219.95 38.59 220.24 37.80 221.18 37.73C221.68 37.22 222.26 36.72 222.47 36C222.62 35.28 223.26 34.56 222.69 33.70C222.62 33.55 222.69 33.26 222.69 32.98C222.76 32.11 222.83 31.25 222.83 30.46C222.90 30.17 222.98 29.88 222.83 29.74C222.11 29.02 222.47 28.01 222.26 27.22C222.04 26.64 222.18 25.99 222.11 25.34C222.04 23.76 221.25 22.54 220.10 21.38C219.45 20.81 218.87 20.09 218.15 19.58C217.79 19.37 217.58 19.08 217.29 18.79C217 18.36 216.64 17.93 216.35 17.57C215.13 17.57 214.05 17.50 212.90 17.06C212.03 16.78 211.02 16.78 210.09 16.70C209.87 16.70 209.66 16.70 209.58 16.85C209.08 17.42 208.58 17.64 207.86 17.28C207.78 17.21 207.57 17.21 207.50 17.21C206.42 17.50 205.41 17.78 204.40 18.14C203.97 18.29 203.68 18.58 203.18 18.22C202.96 18 202.60 18.22 202.38 18.43C201.74 19.22 200.73 19.51 199.79 19.73C199.29 19.87 198.86 20.09 198.50 20.45C197.70 21.31 196.70 22.03 195.98 23.04C195.76 23.40 195.33 23.69 195.11 24.12C194.75 24.77 194.54 25.49 194.25 26.21C194.10 26.64 194.10 27.22 193.53 27.36C193.38 27.43 193.31 27.65 193.31 27.86C193.17 28.30 193.10 28.80 193.24 29.30C193.31 29.59 193.31 29.95 193.02 30.31C192.74 30.67 192.59 31.18 192.45 31.61C191.94 33.91 191.80 36.29 191.87 38.59C191.87 39.02 192.02 39.38 192.02 39.74C192.16 40.90 192.52 42.05 192.45 43.13C192.38 44.14 192.38 44.93 193.10 45.65C193.31 45.94 193.31 46.44 193.46 46.87C193.82 47.95 193.82 49.18 194.82 49.97C195.26 51.26 196.12 52.20 197.20 53.14C197.34 53.21 197.42 53.42 197.49 53.57C197.92 54.36 198.57 54.94 199.43 55.22C199.86 55.37 200.30 55.58 200.73 55.80C200.87 55.87 201.16 55.94 201.16 56.02C201.45 56.74 202.02 56.74 202.60 56.81C203.03 56.88 203.46 56.95 203.90 57.31C204.11 57.53 204.47 57.67 204.76 57.67C205.34 57.67 205.91 57.74 206.49 57.82C207.35 57.82 208.14 58.03 209.01 57.60C209.44 57.38 210.02 57.24 210.38 57.38C211.46 57.82 212.25 57.46 213.04 56.88C213.18 56.81 213.26 56.74 213.33 56.74C214.34 56.59 214.98 55.94 215.78 55.37C216.14 55.08 216.42 54.65 217 54.58C217.07 54.58 217.29 54.36 217.29 54.22C217.65 53.35 218.44 52.99 219.23 52.42C219.16 51.91 219.52 51.48 219.38 50.83C219.30 50.40 219.59 50.04 219.88 49.68C220.67 48.96 221.03 47.95 221.82 47.30C221.97 47.23 222.04 47.09 222.04 46.94C222.62 45.14 222.98 43.34 222.62 41.47C221.39 40.82 221.03 40.75 219.95 40.97C219.45 41.11 218.08 41.54 217.58 41.40C216.57 41.83 215.70 42.34 214.70 42.48C213.69 42.62 212.68 42.98 211.60 43.27C211.31 44.50 211.53 45.94 211.02 47.23C210.59 47.45 210.02 47.45 209.51 47.38C209.01 47.38 208.50 47.23 208 47.16C207.71 47.09 205.48 45.79 205.34 45.50C205.26 45.43 205.19 45.36 205.19 45.29C205.05 44.21 204.18 43.49 203.54 42.70C203.18 42.19 202.89 41.69 203.39 40.97C203.90 40.82 204.40 40.75 204.98 40.97C205.26 41.11 205.62 41.18 205.77 41.11C206.42 40.75 207.06 40.90 207.78 40.90C208.29 40.82 208.86 41.04 209.44 40.68C209.58 40.61 209.80 40.68 210.02 40.68C210.74 40.82 211.46 40.90 212.25 41.04C213.33 41.33 214.48 41.33 215.63 41.11C215.92 41.04 216.28 40.97 216.64 40.97C216.78 40.97 217.65 40.39 217.94 40.54ZM203.61 31.61C204.54 31.61 204.54 31.61 205.19 31.10C205.34 31.03 205.55 30.89 205.77 30.82C206.13 30.74 206.49 30.60 206.78 30.67C207.93 30.89 209.08 30.67 210.16 30.67C211.24 30.74 212.25 30.53 213.26 30.31C214.19 30.10 215.20 29.95 216.14 30.53C216.64 30.24 217.07 30.02 217.50 29.74C217.50 29.30 217.36 29.02 217.43 28.66C217.65 27.65 217.22 26.71 216.93 25.78C216.71 24.98 216.28 24.34 215.85 23.62C215.34 22.90 214.55 22.68 213.76 22.46C212.61 22.03 212.61 22.03 211.17 22.61C211.02 22.68 210.81 22.68 210.66 22.68C210.38 22.61 210.16 22.54 210.09 22.46C209.30 22.75 208.65 23.18 208 23.26C207.06 23.26 206.49 23.76 205.98 24.41C205.84 24.70 205.55 24.98 205.34 25.13C204.90 25.42 204.62 25.85 204.47 26.28C204.26 27.29 203.75 28.15 203.10 28.94C202.74 29.38 202.53 29.88 202.60 30.46C202.89 30.82 203.18 31.18 203.61 31.61ZM209.80 29.30C209.30 29.30 209.01 29.30 208.65 29.30C208.29 29.38 207.93 29.30 207.57 29.59C207.35 29.74 206.99 29.81 206.78 29.74C205.98 29.59 205.26 29.66 204.47 29.74C204.47 29.74 204.33 29.66 204.26 29.59C204.26 29.52 204.26 29.38 204.26 29.30C205.34 28.30 205.70 26.78 206.85 25.70C207.50 26.06 208 26.42 208.72 26.50C208.94 26.50 209.22 26.86 209.37 27.14C209.73 27.79 209.94 28.51 209.80 29.30Z"/></svg>