<svg xmlns="http://www.w3.org/2000/svg" xmlns:xlink="http://www.w3.org/1999/xlink" width="188.5" height="72.00000000000001"><path fill="#2196f3" stroke="#673ab7" d="M186.44 52.06C186.51 50.83 186.08 49.54 186.29 48.24C186.36 48.02 186.22 47.81 186.15 47.59C186.08 47.38 186.00 47.09 186.00 46.87C185.86 45.43 185.79 43.99 185.72 42.62C185.64 42.26 185.57 41.90 185.43 41.62C185.14 40.82 185.07 39.96 185.28 39.10C185.36 38.88 185.36 38.66 185.28 38.45C185.28 38.09 185.14 37.73 185.14 37.44C185.21 36.72 185.07 36 185.07 35.35C185.00 33.84 184.85 32.33 185.50 30.96C185.64 30.67 185.72 30.38 185.64 30.10C185.43 29.66 185.36 29.23 185.50 28.73C185.64 28.30 185.43 27.79 185.43 27.36C185.50 25.70 185.28 24.05 185.57 22.39C185.72 21.82 185.28 21.24 185.93 20.81C186.08 20.66 186.00 20.30 186.00 20.09C185.93 19.66 185.79 19.15 185.79 18.72C185.79 18.22 186.00 17.78 186.00 17.28C186.00 16.99 185.86 16.78 185.86 16.49C185.79 16.13 185.72 15.77 185.86 15.48C186.08 14.98 186.00 14.47 185.93 13.97C185.86 13.18 185.64 12.31 185.57 11.52C185.50 11.09 185.36 10.51 185.50 10.15C185.86 9.14 185.72 8.28 185.50 7.34C185.36 6.62 185.14 5.83 185.64 5.11C185.72 4.10 186.00 3.10 185.36 2.16C182.98 2.16 180.60 2.16 178.16 2.16C177.87 2.45 177.51 2.81 177.15 3.02C176.28 3.60 175.71 4.54 174.63 4.82C174.12 4.97 173.76 5.47 173.48 5.90C173.04 6.41 173.12 6.98 173.40 7.49C173.84 8.21 173.84 8.93 173.62 9.72C173.48 10.08 173.40 10.51 173.48 10.87C173.76 12.24 173.55 13.61 173.76 14.98C173.84 15.70 174.05 16.49 173.69 17.21C173.62 17.35 173.69 17.64 173.76 17.78C174.20 18.36 174.05 18.94 173.91 19.51C173.84 19.94 173.62 20.30 173.69 20.66C173.91 21.53 174.27 22.32 173.48 23.04C173.48 23.11 173.48 23.26 173.48 23.33C173.55 23.90 173.48 24.48 173.62 25.06C173.76 25.49 174.05 25.92 173.84 26.42C173.62 27.29 173.76 28.22 173.91 29.09C174.05 29.66 174.20 30.24 174.12 30.82C173.91 31.97 173.84 33.12 173.91 34.27C173.91 34.49 173.84 34.85 173.91 35.06C173.98 35.42 174.20 35.64 174.41 36C173.98 36.14 173.91 36.43 173.91 36.79C174.05 38.16 173.91 39.53 174.27 40.82C174.34 40.90 174.34 41.18 174.27 41.18C173.84 41.47 173.91 41.98 173.98 42.34C174.20 43.27 174.12 44.14 174.27 45.07C174.41 45.58 174.34 46.01 174.12 46.44C173.91 46.87 173.91 47.23 173.98 47.66C174.05 48.89 174.12 50.11 174.20 51.34C174.20 51.55 174.34 51.84 174.41 51.98C174.70 52.70 174.92 53.35 174.63 54.07C174.48 54.36 174.48 54.72 174.48 55.08C174.70 56.09 174.84 57.17 174.48 58.32C174.92 58.32 175.20 58.32 175.49 58.25C176.79 58.03 178.08 58.32 179.31 58.32C179.52 58.32 179.81 58.46 179.96 58.54C180.75 58.97 181.40 59.04 182.12 58.54C182.33 58.39 182.55 58.32 182.76 58.18C183.27 57.53 183.70 56.88 183.84 56.02C183.84 55.87 183.99 55.66 184.06 55.51C184.56 54.86 185.21 54.29 185.21 53.28C185.21 53.14 185.43 52.99 185.57 52.85C185.86 52.56 186.15 52.34 186.44 52.06ZM184.85 51.26C184.20 51.70 183.63 51.84 182.98 51.55C182.76 51.41 182.48 51.41 182.33 51.48C181.54 51.77 180.82 51.55 180.10 51.34C179.96 50.90 179.88 50.54 179.74 50.18C179.67 49.90 179.60 49.68 179.81 49.39C180.10 49.10 180.03 48.74 179.96 48.46C179.88 47.88 179.45 47.38 179.96 46.80C180.03 46.73 179.96 46.51 179.88 46.37C179.74 45.86 179.60 45.29 179.38 44.78C179.09 43.63 179.24 42.48 179.16 41.33C179.45 40.90 179.38 40.32 179.38 39.82C179.38 39.53 179.45 39.24 179.52 38.95C179.74 38.45 179.74 38.02 179.52 37.44C179.31 36.86 179.24 36.14 179.24 35.50C179.16 35.21 179.52 34.85 179.45 34.56C179.24 33.34 179.45 32.11 179.60 30.89C179.67 30.53 179.52 30.02 179.38 29.66C179.16 28.87 179.02 28.08 179.24 27.29C179.31 27.00 179.38 26.64 179.24 26.42C179.09 25.99 179.16 25.63 179.38 25.20C179.45 24.98 179.60 24.70 179.52 24.48C179.09 23.33 179.60 22.10 179.16 20.95C179.09 20.74 179.09 20.45 179.16 20.23C179.38 19.22 178.80 18.22 179.16 17.28C179.45 16.56 179.45 15.84 179.52 15.05C179.60 14.76 179.60 14.40 179.45 14.26C179.09 13.61 179.16 13.10 179.38 12.46C179.60 11.74 179.52 11.02 179.38 10.22C179.16 9.43 179.16 8.64 179.16 7.85C179.16 7.70 179.38 7.56 179.45 7.42C179.67 6.91 179.60 6.41 179.38 5.98C179.16 5.40 179.09 4.90 179.38 4.32C179.52 4.03 179.60 3.74 179.67 3.46C180.39 3.10 180.96 3.10 181.68 3.24C182.40 3.38 183.20 3.46 183.99 3.24C184.06 3.24 184.20 3.31 184.42 3.38C184.56 3.96 184.71 4.54 184.28 5.11C184.06 5.33 184.13 5.76 184.13 6.05C184.28 7.78 184.42 9.50 184.56 11.23C184.56 11.52 184.64 11.81 184.56 12.10C184.20 12.96 184.28 13.75 184.49 14.62C184.71 15.62 184.35 16.49 184.28 17.50C184.28 18.58 184.13 19.66 184.71 20.66C185.00 21.10 184.85 21.53 184.64 21.89C184.20 22.68 184.13 23.40 184.49 24.26C184.56 24.55 184.56 24.98 184.56 25.34C184.42 26.14 184.28 26.86 184.13 27.58C184.06 27.86 184.06 28.08 184.06 28.30C184.13 29.23 184.28 30.10 184.35 31.03C184.35 31.18 184.35 31.39 184.28 31.46C183.70 32.04 184.06 32.69 183.99 33.34C183.99 33.70 183.92 34.13 183.99 34.49C183.99 34.92 183.92 35.35 184.13 35.71C184.28 36.22 184.28 36.50 184.13 36.94C183.99 37.30 184.06 37.80 184.13 38.23C184.28 38.81 184.35 39.46 184.13 40.03C183.92 40.54 183.92 41.11 183.99 41.62C184.06 42.41 184.20 43.27 184.13 44.14C184.13 44.71 184.20 45.22 184.49 45.65C184.64 47.16 185.21 48.67 184.92 50.18C184.85 50.54 184.85 50.83 184.85 51.26Z"/></svg>