<svg xmlns="http://www.w3.org/2000/svg" xmlns:xlink="http://www.w3.org/1999/xlink" width="39.528000000000006" height="72.00000000000001"><path fill="#2196f3" stroke="#673ab7" d="M32.40 29.81C32.11 29.74 31.97 29.66 32.26 29.30C32.33 29.52 32.33 29.66 32.33 29.88C32.47 29.66 32.69 29.52 32.76 29.38C32.90 28.58 33.41 27.86 33.34 27.00C33.34 26.71 33.62 26.35 33.91 26.06C34.20 25.70 34.27 25.34 34.27 24.91C34.27 24.48 34.42 24.05 34.49 23.62C35.14 23.26 35.06 22.61 35.21 22.03C35.50 21.24 35.50 20.45 36.00 19.73C36.50 18.94 36.72 18.07 36.94 17.21C37.01 16.70 37.15 16.27 37.22 15.77C37.30 15.05 37.51 14.33 37.37 13.54C37.15 12.17 37.08 10.80 37.15 9.43C37.15 8.21 36.72 7.20 36.00 6.34C36.00 6.41 35.93 6.48 35.93 6.48C36.00 6.48 36.00 6.48 36.07 6.55C36.07 6.48 36.00 6.41 36.00 6.34C36.14 6.05 36.00 5.83 35.86 5.69C35.06 4.75 34.13 3.96 32.90 3.60C31.61 3.17 30.38 2.66 29.16 2.09C28.15 1.58 27.14 1.37 26.06 1.51C25.63 1.66 25.06 1.73 24.62 1.58C23.76 1.22 22.90 1.30 21.96 1.15C21.74 1.15 21.46 1.15 21.31 1.01C20.45 0.36 19.58 0.50 18.65 0.72C18.29 0.79 17.93 0.72 17.57 0.79C16.63 0.86 15.77 0.86 14.83 1.08C14.26 1.22 13.68 1.37 13.03 1.30C12.31 1.15 11.81 1.37 11.23 1.87C10.73 2.45 10.08 2.88 9.22 2.45C9.00 2.38 8.64 2.45 8.35 2.52C8.14 2.59 7.92 2.81 7.85 2.81C7.20 3.67 6.62 4.39 6.19 5.18C5.69 5.98 4.90 6.55 4.90 7.63C4.90 7.92 4.61 8.14 4.46 8.35C4.10 8.86 3.67 9.36 3.31 9.86C3.24 10.01 3.02 10.15 3.02 10.30C3.10 10.80 3.24 11.23 3.24 11.74C3.31 12.17 2.81 12.60 3.10 13.10C3.17 13.18 3.24 13.25 3.24 13.32C3.38 13.75 3.46 14.18 3.17 14.54C2.66 15.12 3.10 15.77 3.10 16.34C3.10 16.92 2.59 17.42 2.88 18.14C3.24 19.08 3.46 20.16 2.95 21.17C2.95 21.38 2.95 21.53 2.95 21.74C2.95 22.75 2.81 23.83 3.02 24.84C3.10 25.13 2.95 25.42 2.95 25.70C2.81 27.00 2.45 28.30 2.88 29.66C3.02 30.17 3.02 30.82 2.74 31.18C2.30 31.90 2.45 32.47 2.66 33.12C2.74 33.41 3.02 33.77 2.95 34.06C2.74 34.70 3.10 35.35 3.02 36C2.95 36.29 2.95 36.72 2.81 36.94C2.38 37.51 2.45 38.09 2.59 38.74C2.74 39.31 2.74 39.96 2.74 40.54C2.88 41.90 2.81 43.20 2.74 44.57C2.66 44.86 3.02 45.22 2.88 45.50C2.66 46.15 2.88 46.80 2.74 47.45C2.52 48.02 2.81 48.38 3.17 48.67C3.10 49.18 3.10 49.68 2.88 49.97C2.30 50.83 2.59 51.70 2.81 52.42C3.02 53.14 3.17 53.78 3.24 54.50C3.31 55.73 2.95 56.88 3.17 58.10C3.24 58.25 3.17 58.39 3.10 58.54C2.88 59.26 3.10 59.76 3.67 60.41C4.25 60.05 4.90 59.98 5.54 60.26C5.90 60.41 6.41 60.34 6.77 60.19C7.56 59.83 8.28 59.83 9.07 59.76C9.94 59.69 10.87 59.76 11.81 59.76C11.95 59.54 12.17 59.26 12.38 59.11C12.96 58.54 13.54 57.96 13.32 57.02C13.32 56.74 13.46 56.38 13.97 56.38C14.04 56.45 14.26 56.30 14.26 56.23C14.26 55.73 14.62 55.58 14.90 55.37C14.98 55.30 15.05 55.15 15.05 55.01C15.34 54.29 15.48 53.57 15.84 52.92C15.98 52.56 15.98 51.98 15.91 51.62C15.70 50.83 15.77 50.11 15.77 49.32C15.84 48.60 15.98 47.88 15.70 47.09C15.55 46.66 15.48 46.01 15.70 45.58C15.98 44.86 15.91 44.28 15.48 43.56C15.34 43.27 15.26 42.84 15.26 42.48C15.26 42.19 15.41 41.83 15.91 41.83C16.06 42.12 16.20 42.55 16.49 42.77C17.71 43.85 18.22 45.43 19.22 46.66C20.09 47.81 20.95 49.03 21.82 50.26C21.96 50.47 22.18 50.69 22.46 50.83C22.97 51.19 23.40 51.70 23.69 52.34C24.05 53.28 24.62 54.14 25.20 54.94C25.78 55.73 26.28 56.45 26.78 57.31C26.93 57.46 26.93 57.74 27.00 57.96C27.29 59.04 27.86 59.98 29.30 59.98C29.95 59.33 30.74 58.68 31.75 58.39C31.97 58.32 32.11 58.18 32.33 57.96C32.62 57.67 32.98 57.46 33.19 57.10C33.48 56.52 34.06 56.74 34.34 56.38C34.70 55.87 35.21 55.58 35.71 55.37C36.36 55.15 36.58 54.65 36.65 54.00C36.65 53.64 36.72 53.21 36.79 52.78C36.86 52.13 37.01 51.41 37.01 50.76C37.01 50.11 37.08 49.54 37.30 48.96C37.37 48.82 37.44 48.60 37.51 48.46C37.58 47.88 37.58 47.38 37.01 47.09C36.50 46.80 36.36 46.22 36.36 45.72C36.29 44.64 35.86 43.78 34.92 43.27C34.78 43.20 34.56 42.98 34.56 42.84C34.70 42.26 34.20 42.05 34.06 41.54C33.26 41.18 33.26 40.25 32.62 39.74C32.47 39.60 32.40 39.24 32.18 39.17C31.10 38.66 30.89 37.58 30.46 36.65C30.24 36 29.88 35.42 29.30 35.14C28.58 34.85 28.37 34.27 28.01 33.62C28.94 33.48 29.52 32.90 30.02 32.26C30.17 32.11 30.31 31.90 30.46 31.90C31.18 31.82 31.39 31.25 31.54 30.74C31.68 30.24 32.04 30.10 32.40 29.81ZM14.90 28.94C14.40 29.09 13.97 29.23 13.61 29.38C13.25 29.66 13.61 29.95 13.61 30.17C13.61 30.60 13.75 31.03 13.68 31.46C13.54 32.04 13.68 32.62 13.61 33.19C13.61 33.98 13.75 34.78 13.68 35.57C13.61 35.86 13.61 36.22 13.68 36.43C14.04 37.15 13.90 37.80 13.68 38.52C13.61 38.74 13.54 39.10 13.61 39.17C14.11 39.67 13.82 40.18 13.90 40.68C13.97 41.26 13.97 41.90 14.11 42.48C14.33 43.99 14.62 45.50 14.69 47.02C14.76 47.74 14.76 48.46 14.83 49.18C14.83 49.32 14.83 49.46 14.76 49.61C14.11 50.33 14.33 51.26 14.18 52.13C14.18 52.20 14.11 52.34 14.04 52.49C13.82 52.49 13.54 52.56 13.25 52.63C12.60 52.70 11.95 52.78 11.30 52.99C10.44 53.28 9.65 52.99 8.86 52.63C9.00 51.55 9.22 50.62 8.93 49.61C8.86 49.39 8.93 49.10 9.00 48.89C9.07 48.02 9.00 47.16 8.86 46.30C8.71 45.79 8.71 45.14 8.86 44.64C9.07 43.92 9.00 43.20 8.78 42.48C8.42 41.26 8.06 40.03 8.35 38.74C8.35 38.45 8.28 38.23 8.28 38.02C8.14 37.37 8.14 36.79 8.28 36.14C8.50 35.50 8.57 34.78 8.35 34.06C8.35 33.77 8.42 33.48 8.42 33.19C8.50 32.47 8.50 31.75 7.92 31.25C8.64 30.17 8.57 29.09 8.21 28.01C8.14 27.79 7.99 27.65 7.99 27.43C7.99 26.50 7.99 25.56 8.06 24.62C8.42 24.12 8.35 23.54 8.35 22.97C8.42 22.46 8.42 21.89 8.42 21.38C8.50 20.95 8.57 20.52 8.06 20.23C7.99 20.16 7.99 19.87 7.99 19.73C8.06 18.65 8.14 17.57 8.21 16.42C8.21 16.34 8.21 16.27 8.28 16.20C8.93 15.05 8.78 13.82 8.71 12.67C8.64 11.66 8.78 10.66 8.64 9.65C8.50 8.93 8.78 8.14 8.86 7.42C9.00 6.62 9.14 5.83 8.86 4.97C8.71 4.61 8.86 4.18 8.86 3.82C10.08 3.31 11.16 2.95 12.24 2.45C12.67 2.23 13.10 2.09 13.61 2.09C13.97 2.16 14.40 2.16 14.76 2.16C15.26 2.23 15.70 2.23 16.13 1.94C16.63 1.58 17.28 1.58 17.78 1.73C19.01 2.16 20.38 2.02 21.60 2.23C21.89 2.30 22.18 2.30 22.46 2.16C22.75 2.09 22.97 2.09 23.26 2.02C24.55 1.94 25.70 2.30 26.93 2.52C28.08 2.74 29.23 3.02 30.38 3.31C30.60 3.38 30.74 3.46 30.89 3.53C31.25 3.82 31.46 4.18 31.82 4.39C32.26 4.54 32.69 4.46 33.05 4.75C33.55 5.04 33.98 5.26 34.20 5.90C34.27 6.41 34.70 6.77 34.99 7.20C35.21 7.70 35.42 8.14 35.64 8.64C35.71 8.93 35.78 9.22 35.71 9.43C35.64 10.01 35.71 10.51 35.93 11.02C36.29 12.10 36.14 13.25 36.14 14.40C36.14 14.76 35.86 15.12 35.86 15.48C35.71 16.27 35.93 17.14 35.57 17.86C35.28 18.58 34.99 19.30 34.78 20.02C34.27 21.46 33.41 22.61 32.33 23.62C31.82 24.19 31.25 24.70 30.82 25.27C30.38 25.92 29.74 26.21 29.23 26.71C28.94 26.93 28.73 26.93 28.44 26.78C28.01 26.57 27.72 26.86 27.58 27.14C27.43 27.50 27.14 27.72 26.78 27.86C25.63 28.15 24.55 28.73 23.33 28.66C22.97 29.09 22.75 29.52 22.90 30.10C23.98 30.60 24.77 31.46 25.63 32.18C26.06 32.54 26.42 33.19 26.50 33.77C26.57 34.34 26.78 34.63 27.22 34.85C27.86 35.21 28.44 35.64 28.58 36.43C28.66 36.79 29.02 37.22 29.38 37.44C29.81 37.73 30.10 38.16 30.31 38.59C30.67 39.38 31.18 40.10 31.75 40.75C32.11 41.11 32.33 41.62 32.62 42.05C32.90 42.55 33.12 43.06 33.55 43.49C33.98 43.92 34.20 44.64 34.42 45.22C34.56 45.86 35.06 46.37 35.28 46.94C35.86 47.23 35.86 47.81 36.14 48.17C35.50 49.10 34.78 49.68 33.91 50.26C33.34 50.54 32.83 50.98 32.47 51.55C32.04 52.20 31.54 52.20 31.10 51.55C30.60 50.62 29.81 49.90 29.45 48.82C29.30 48.46 29.16 47.95 28.58 47.81C28.01 46.37 26.71 45.43 26.28 43.85C26.21 43.49 25.99 43.13 25.78 42.91C25.27 42.34 24.77 41.76 24.19 41.26C23.83 40.90 23.62 40.46 23.47 40.03C23.33 39.46 23.26 38.88 22.46 38.81C22.39 38.81 22.25 38.66 22.18 38.52C21.60 37.58 20.81 36.72 20.45 35.64C20.30 35.06 19.87 34.63 19.30 34.42C18.86 34.27 18.65 33.98 18.43 33.55C18.22 33.05 17.86 32.54 17.50 32.18C17.06 31.75 16.70 31.18 16.49 30.60C16.27 29.88 15.77 29.30 14.90 28.94ZM25.70 22.61C25.92 22.10 26.06 21.82 26.14 21.53C26.93 21.31 27.43 20.81 27.94 20.30C28.37 19.80 28.58 19.30 28.66 18.65C28.73 18.22 29.02 17.86 29.30 17.50C29.66 16.92 29.95 16.34 30.02 15.70C30.10 15.12 30.31 14.54 30.24 13.97C30.17 13.39 30.53 12.89 30.53 12.31C30.53 12.17 30.53 12.02 30.53 12.02C30.10 11.52 29.59 11.09 29.45 10.58C29.16 9.22 28.30 8.35 27.22 7.63C26.28 7.06 25.20 6.98 24.26 6.48C23.98 6.34 23.54 6.41 23.18 6.41C21.96 6.41 20.66 6.48 19.44 6.55C19.15 6.55 18.79 6.48 18.50 6.41C17.28 6.12 16.13 6.05 15.05 6.77C14.83 6.91 14.62 7.06 14.33 6.91C13.90 6.70 13.61 6.91 13.32 7.27C13.18 7.49 12.96 7.78 12.74 8.14C13.39 8.57 13.32 9.22 13.18 9.79C13.03 10.58 12.82 11.45 13.18 12.24C13.32 12.67 13.32 13.03 13.25 13.46C13.25 13.68 13.25 13.97 13.25 14.18C13.46 15.26 13.68 16.34 13.61 17.50C13.46 18.94 13.61 20.38 13.68 21.82C13.68 22.18 13.68 22.54 13.82 22.82C14.04 23.26 14.04 23.69 13.82 24.05C13.54 24.77 13.68 25.42 14.04 26.14C14.54 26.06 15.05 26.14 15.34 25.92C16.06 25.34 16.92 25.27 17.71 24.91C18.07 24.77 18.43 24.62 18.94 24.84C19.08 24.91 19.37 24.84 19.58 24.77C20.16 24.55 20.74 24.19 21.38 23.98C22.82 23.54 24.26 23.04 25.70 22.61ZM22.25 12.96C22.18 13.54 22.54 13.97 22.90 14.40C23.90 15.41 24.48 16.70 24.84 18C25.20 19.15 25.20 20.38 24.26 21.31C24.19 21.38 24.19 21.38 24.12 21.46C22.82 22.10 21.74 23.18 20.16 23.26C19.73 23.26 19.37 23.40 19.01 23.62C18.00 24.19 16.85 24.48 15.62 24.70C15.55 24.34 15.41 24.05 15.34 23.69C15.19 23.26 15.12 22.75 15.05 22.32C15.55 21.82 15.41 21.31 15.26 20.74C15.19 20.16 15.12 19.58 15.05 19.08C14.98 18.43 14.76 17.93 15.05 17.28C15.19 16.92 15.12 16.34 14.98 15.98C14.62 15.41 14.69 14.83 14.69 14.26C14.69 13.68 14.83 13.25 14.33 12.82C14.18 12.67 14.26 12.31 14.18 11.95C14.62 11.88 14.90 11.74 15.19 11.74C15.62 11.74 16.06 11.88 16.34 11.45C17.21 11.45 18.07 11.23 18.86 11.59C19.94 12.02 21.10 12.46 22.25 12.96Z"/></svg>