<svg xmlns="http://www.w3.org/2000/svg" xmlns:xlink="http://www.w3.org/1999/xlink" width="142.5" height="72.00000000000001"><path fill="#2196f3" stroke="#673ab7" d="M110.07 56.95C110.00 56.95 109.92 56.95 109.92 56.95C108.92 57.60 107.91 58.25 107.48 59.40C107.40 59.54 107.19 59.69 107.04 59.83C106.47 60.26 105.82 60.70 105.10 61.27C104.45 62.21 104.45 63.43 104.67 64.73C104.74 64.87 104.74 65.09 104.74 65.30C104.81 66.46 105.10 67.68 104.67 68.83C105.03 69.34 105.53 69.48 106.04 69.55C106.32 69.62 106.68 69.62 106.83 69.84C107.40 70.63 108.20 70.63 108.99 70.70C109.78 70.70 110.50 70.70 111.29 70.85C112.01 70.99 112.73 71.14 113.52 70.78C113.60 70.78 113.67 70.85 113.74 70.85C115.18 71.42 116.48 70.56 117.84 70.49C117.92 70.49 117.99 70.42 118.06 70.34C118.64 69.77 119.43 69.62 120.15 69.41C120.51 69.34 120.80 69.26 120.94 68.90C121.08 68.69 121.30 68.62 121.52 68.40C122.31 67.68 123.17 67.03 123.96 66.31C124.40 65.95 124.68 65.66 124.61 65.09C124.61 64.58 124.83 64.08 125.33 63.94C125.84 63.79 125.91 63.29 126.20 63.07C126.70 62.71 126.70 62.28 126.77 61.78C126.77 61.56 126.77 61.27 126.92 61.13C127.56 60.62 127.56 59.90 127.78 59.18C127.85 58.90 127.92 58.54 128.14 58.32C129.00 57.53 129.15 56.23 129.94 55.37C130.08 55.30 130.01 54.94 130.08 54.72C130.08 54.36 130.16 54.00 130.52 53.71C130.73 53.57 130.88 53.28 130.95 52.99C131.09 52.56 131.16 52.06 131.24 51.62C131.38 50.98 131.60 50.33 132.17 49.82C132.46 49.61 132.53 49.25 132.68 48.89C133.25 47.38 133.90 45.94 134.48 44.50C134.69 43.85 134.98 43.13 135.05 42.41C135.05 41.83 135.20 41.40 135.48 40.97C135.99 40.18 136.20 39.24 136.28 38.16C136.28 37.51 136.35 36.79 137.14 36.36C137.50 36.14 137.57 35.78 137.50 35.35C137.50 35.21 137.43 34.92 137.57 34.85C137.93 34.42 137.79 33.91 137.86 33.48C137.93 32.90 137.93 32.33 138.22 31.82C138.36 31.68 138.29 31.46 138.29 31.25C138.29 30.96 138.22 30.67 138.29 30.38C138.58 29.38 138.72 28.37 139.23 27.43C139.66 26.50 139.80 25.49 139.88 24.55C139.95 23.83 140.16 23.11 140.45 22.46C141.03 21.46 141.39 20.38 141.60 19.22C141.24 18.65 140.88 18.14 140.24 17.86C139.66 17.57 139.16 17.14 138.72 16.70C138.44 16.49 138.08 16.42 137.72 16.20C137.07 15.91 136.20 15.91 135.92 15.05C135.84 14.83 135.27 14.83 135.12 15.05C134.91 15.41 134.62 15.84 134.40 16.20C134.12 16.13 133.90 16.06 133.68 15.98C132.75 17.50 131.38 18.07 129.80 18.29C129.22 19.37 129.29 19.37 129.29 20.23C129.29 20.74 129.22 21.17 129.15 21.67C129.15 22.18 129.15 22.75 129.00 23.18C128.86 23.69 128.43 24.12 128.36 24.62C128.14 25.27 128.21 25.92 128.14 26.71C127.49 27.65 126.99 28.73 126.84 30.02C126.77 30.89 126.48 31.68 126.27 32.54C126.20 32.76 126.20 33.05 126.05 33.19C125.33 33.77 125.12 34.49 124.90 35.42C124.54 35.21 124.18 35.06 124.18 34.85C123.96 33.70 123.17 32.90 122.52 32.04C121.80 30.96 121.37 29.74 120.65 28.66C120.44 28.30 120.29 27.94 120.08 27.58C119.79 27.14 119.43 26.78 119.21 26.35C119.00 25.85 118.92 25.27 118.71 24.77C118.42 24.26 117.92 23.90 117.77 23.40C117.41 22.39 116.69 21.60 116.40 20.59C116.26 20.38 116.12 20.09 115.97 19.87C115.68 19.58 115.40 19.30 115.25 19.01C115.11 18.65 115.11 18.29 114.96 17.93C114.53 17.86 114.10 17.78 113.67 17.71C113.38 18 113.16 18.43 112.88 18.50C111.87 18.50 111.00 19.15 109.92 18.94C109.71 18.94 109.35 19.08 109.20 19.30C108.92 19.58 108.70 19.73 108.34 19.80C107.98 19.87 107.69 20.09 107.55 20.52C107.26 21.17 106.76 21.60 106.18 21.89C105.96 22.03 105.75 22.10 105.68 22.25C105.60 22.82 105.17 23.11 104.81 23.47C104.60 23.76 104.45 24.05 104.52 24.41C104.60 24.62 104.67 24.91 104.60 25.13C104.45 25.99 104.88 26.50 105.46 27.00C106.04 27.58 106.76 28.08 106.54 29.09C106.47 29.23 106.68 29.45 106.76 29.59C106.90 30.02 107.12 30.38 107.26 30.74C107.40 30.96 107.48 31.18 107.55 31.25C108.12 31.39 108.20 31.82 108.34 32.26C108.41 32.69 108.77 33.05 109.06 33.34C109.71 33.91 110.21 34.56 110.50 35.35C110.72 35.86 110.93 36.36 111.15 36.79C111.36 37.37 111.58 37.87 112.08 38.23C112.30 38.30 112.52 38.59 112.44 38.74C112.37 39.38 112.88 39.67 113.16 40.10C113.45 40.46 113.81 40.75 113.88 41.18C113.96 41.76 114.24 42.19 114.68 42.48C115.25 42.98 115.54 43.70 115.97 44.35C116.12 44.64 116.26 45.00 116.48 45.14C117.34 45.72 117.70 46.58 118.06 47.52C118.35 48.46 118.56 49.39 119.43 50.11C119.79 50.40 119.79 50.90 119.57 51.34C119.36 51.77 119.00 52.20 119.43 52.78C119.50 52.85 119.43 53.14 119.36 53.14C118.71 53.28 118.71 53.86 118.64 54.29C118.42 55.30 117.92 56.23 117.56 57.17C117.20 57.17 116.84 57.17 116.62 57.31C116.33 57.67 115.97 57.74 115.47 57.74C115.18 57.74 114.89 57.89 114.53 58.03C113.74 58.39 112.88 58.32 112.01 58.18C111.22 57.96 110.50 57.67 110.07 56.95ZM109.49 20.66C109.71 20.52 109.92 20.45 110.14 20.38C111.00 20.09 111.87 19.80 112.73 19.58C113.24 19.37 113.24 19.37 114.17 19.58C114.53 20.23 114.53 21.10 115.32 21.53C115.47 21.60 115.61 21.82 115.68 22.03C115.90 23.04 116.62 23.76 117.12 24.62C117.56 25.27 118.06 25.85 117.99 26.71C117.99 26.86 118.13 27.07 118.28 27.22C118.92 27.58 119.14 28.30 119.43 28.94C119.50 29.23 119.64 29.59 119.86 29.81C120.08 30.02 120.08 30.17 120.08 30.46C120.15 31.18 120.44 31.82 121.08 32.26C121.23 32.33 121.30 32.54 121.37 32.69C121.80 33.26 122.09 33.98 122.52 34.42C122.96 34.85 123.17 35.21 123.39 35.71C123.53 36.14 123.82 36.50 124.25 36.79C124.68 37.15 124.90 37.73 125.19 38.23C125.33 38.52 125.40 38.66 125.69 38.88C125.91 39.02 126.05 39.38 126.20 39.67C126.41 40.18 126.63 40.68 126.84 41.11C127.13 41.69 127.71 41.83 128.14 41.33C128.43 41.11 128.72 40.82 128.79 40.46C129.00 39.82 129.22 39.17 129.15 38.52C129.15 37.80 129.29 37.08 129.72 36.43C130.01 36.07 130.16 35.57 130.23 35.14C130.44 33.12 131.45 31.32 131.74 29.38C131.81 29.16 131.88 28.87 132.03 28.73C132.96 27.79 132.82 26.50 133.47 25.49C133.25 24.91 133.61 24.48 133.76 24.05C133.90 23.54 134.04 23.18 134.33 22.75C134.62 22.39 134.84 21.89 134.69 21.38C134.48 20.59 134.40 19.87 135.20 19.22C135.27 19.15 135.27 18.86 135.20 18.72C135.20 18.50 135.12 18.36 135.05 18.14C135.34 17.64 135.63 17.21 135.99 16.63C136.28 16.63 136.64 16.63 137.00 16.63C137.14 16.92 137.28 17.35 137.57 17.50C138.22 17.78 138.72 18.22 139.08 18.72C139.30 19.01 139.59 19.15 139.88 19.37C139.73 19.80 139.52 20.23 139.44 20.59C139.08 22.46 138.44 24.26 138.00 26.14C137.93 26.35 137.86 26.50 137.93 26.71C138.08 27.50 137.72 28.30 137.57 29.02C137.43 29.66 137.36 30.24 137.28 30.89C137.21 31.18 137.21 31.54 137.07 31.82C136.78 32.62 136.35 33.26 136.35 34.13C135.84 34.70 135.84 35.35 136.28 36C135.77 36.36 135.48 36.79 135.41 37.37C135.27 38.23 134.69 39.02 134.76 39.96C134.76 40.10 134.62 40.18 134.48 40.32C134.12 40.54 134.04 40.90 134.12 41.33C134.19 41.98 133.97 42.55 133.54 43.13C133.18 43.63 133.11 44.35 132.89 45.00C132.89 45.14 132.96 45.43 132.82 45.50C132.17 45.94 132.32 46.58 132.24 47.23C132.17 47.59 132.17 47.95 131.81 48.24C131.60 48.38 131.52 48.74 131.38 48.96C131.24 49.39 131.24 49.97 130.59 50.04C130.44 50.47 130.16 50.83 130.08 51.19C129.94 51.98 129.87 52.70 129.36 53.35C129.22 53.50 129.29 53.78 129.22 54.07C129.15 54.50 129.00 54.86 128.50 55.01C128.28 55.15 128.14 55.44 128.00 55.66C127.78 56.02 127.56 56.30 127.28 56.59C127.28 56.74 127.28 56.88 127.28 57.02C127.56 57.60 127.35 58.10 126.92 58.54C126.27 59.18 125.69 59.90 125.12 60.55C124.40 61.20 123.75 61.92 123.03 62.50C122.60 62.93 122.02 63.07 121.80 63.65C121.66 63.79 121.37 63.86 121.16 64.01C120.51 64.22 119.79 64.37 119.14 64.58C118.64 64.73 118.13 64.80 117.70 65.16C117.27 65.45 116.69 65.52 116.19 65.30C115.40 65.09 114.68 64.94 113.96 64.80C113.74 64.80 113.45 64.73 113.24 64.80C112.59 65.23 112.16 64.87 111.65 64.58C111.15 64.22 110.79 63.86 110.28 63.58C109.78 63.29 109.71 62.93 109.71 62.50C109.78 62.14 109.92 61.85 109.92 61.49C110.00 60.91 110.50 60.34 110.14 59.69C110.07 59.62 110.21 59.47 110.28 59.33C110.43 59.11 110.64 58.90 110.79 58.61C111.22 58.82 111.51 58.97 111.80 59.11C112.37 59.33 112.95 59.69 113.60 59.33C114.60 59.69 115.61 59.04 116.69 59.18C116.91 59.26 117.12 59.18 117.34 59.04C118.56 58.39 119.79 57.74 121.01 57.10C121.30 56.95 121.52 56.81 121.66 56.59C122.38 55.37 123.32 54.29 123.60 52.92C123.75 52.13 123.82 51.26 124.32 50.62C124.32 50.62 124.40 50.54 124.40 50.47C124.25 48.89 124.76 47.23 123.46 45.86C123.24 45.58 123.03 45.22 122.81 44.93C122.31 44.28 122.38 43.27 121.66 42.84C120.94 42.41 120.58 41.62 119.93 41.11C119.57 40.82 119.36 40.46 119.36 40.03C119.28 39.60 119.14 39.24 118.85 38.95C117.99 38.02 117.48 36.86 117.20 35.64C117.20 35.35 117.05 35.06 116.98 34.85C116.91 34.70 116.76 34.56 116.69 34.63C116.33 34.70 116.19 34.42 115.97 34.20C115.61 33.98 115.90 33.70 115.90 33.48C115.68 32.90 115.47 32.33 115.11 31.82C114.82 31.39 114.53 30.96 114.39 30.46C114.32 30.24 114.24 30.02 113.96 29.95C113.45 29.88 113.45 29.45 113.31 29.09C113.24 28.66 113.60 28.15 112.95 27.79C112.66 27.58 112.73 27.00 112.30 26.78C112.08 26.71 111.87 26.21 111.87 25.92C111.94 25.20 111.51 24.84 111.08 24.41C110.93 24.26 110.64 24.12 110.72 23.98C110.79 23.33 110.28 23.04 109.92 22.61C109.56 22.39 109.35 21.96 109.56 21.46C109.71 21.24 109.56 20.95 109.49 20.66Z"/></svg>